<svg class="main-svg" xmlns="http://www.w3.org/2000/svg" xmlns:xlink="http://www.w3.org/1999/xlink" width="320" height="320" style="" viewBox="0 0 320 320"><rect x="0" y="0" width="320" height="320" style="fill: rgb(0, 0, 0); fill-opacity: 0;"/><defs id="defs-381f02"><g class="clips"/><g class="gradients"/></defs><g class="bglayer"/><g class="layer-below"><g class="imagelayer"/><g class="shapelayer"/></g><g class="cartesianlayer"/><g class="polarlayer"/><g class="ternarylayer"/><g class="geolayer"/><g class="funnelarealayer"/><g class="pielayer"><g class="trace" stroke-linejoin="round" style="opacity: 1;"><g class="slice"><path class="surface" d="M149.3370435700977,239.28619905238241a80,80 0 1 0 10.662956429902302,-159.28619905238241l0,-80a160,160 0 1 1 -21.325912859804603,318.57239810476483Z" style="pointer-events: all; stroke-width: 0; fill: rgb(144, 238, 144); fill-opacity: 1; stroke: rgb(68, 68, 68); stroke-opacity: 1;"/><g class="slicetext"><text data-notex="1" class="slicetext" transform="translate(279.7320254347784,155.4135535494146)" text-anchor="middle" x="0" y="0" style="font-family: 'Open Sans', verdana, arial, sans-serif; font-size: 14px; fill: rgb(68, 68, 68); fill-opacity: 1; white-space: pre;"><tspan class="line" dy="0em" x="0" y="0">Neutral</tspan><tspan class="line" dy="1.3em" x="0" y="0">98</tspan><tspan class="line" dy="2.6em" x="0" y="0">52.1%</tspan></text></g></g><g class="slice"><path class="surface" d="M160,80a80,80 0 0 0 -45.27576754644761,145.95532482734083l-45.27576754644761,65.95532482734083a160,160 0 0 1 90.55153509289522,-291.91064965468166Z" style="pointer-events: all; stroke-width: 0; fill: rgb(0, 100, 0); fill-opacity: 1; stroke: rgb(68, 68, 68); stroke-opacity: 1;"/><g class="slicetext"><text data-notex="1" class="slicetext" transform="translate(45.15332533517051,111.84536779372394)" text-anchor="middle" x="0" y="0" style="font-family: 'Open Sans', verdana, arial, sans-serif; font-size: 14px; fill: rgb(255, 255, 255); fill-opacity: 1; white-space: pre;"><tspan class="line" dy="0em" x="0" y="0">Positive</tspan><tspan class="line" dy="1.3em" x="0" y="0">76</tspan><tspan class="line" dy="2.6em" x="0" y="0">40.4%</tspan></text></g></g><g class="slice"><path class="surface" d="M114.72423245355239,225.95532482734083a80,80 0 0 0 34.61281111654529,13.330874225041569l-10.662956429902321,79.2861990523824a160,160 0 0 1 -69.22562223309058,-26.661748450083138Z" style="pointer-events: all; stroke-width: 0; fill: rgb(255, 0, 0); fill-opacity: 1; stroke: rgb(68, 68, 68); stroke-opacity: 1;"/><g class="slicetext"><text data-notex="1" class="slicetext" transform="translate(102.97110153615668,277.6801126502822)scale(0.866806407587415)rotate(-68.936170212766)" text-anchor="middle" x="0" y="0" style="font-family: 'Open Sans', verdana, arial, sans-serif; font-size: 14px; fill: rgb(255, 255, 255); fill-opacity: 1; white-space: pre;"><tspan class="line" dy="0em" x="0" y="0">Negative</tspan><tspan class="line" dy="1.3em" x="0" y="0">14</tspan><tspan class="line" dy="2.6em" x="0" y="0">7.45%</tspan></text></g></g></g></g><g class="treemaplayer"/><g class="sunburstlayer"/><g class="glimages"/><defs id="topdefs-381f02"><g class="clips"/></defs><g class="layer-above"><g class="imagelayer"/><g class="shapelayer"/></g><g class="infolayer"><g class="g-gtitle"/></g></svg>