<svg class="main-svg" xmlns="http://www.w3.org/2000/svg" xmlns:xlink="http://www.w3.org/1999/xlink" width="320" height="320" style="" viewBox="0 0 320 320"><rect x="0" y="0" width="320" height="320" style="fill: rgb(0, 0, 0); fill-opacity: 0;"/><defs id="defs-598e63"><g class="clips"/><g class="gradients"/></defs><g class="bglayer"/><g class="layer-below"><g class="imagelayer"/><g class="shapelayer"/></g><g class="cartesianlayer"/><g class="polarlayer"/><g class="ternarylayer"/><g class="geolayer"/><g class="funnelarealayer"/><g class="pielayer"><g class="trace" stroke-linejoin="round" style="opacity: 1;"><g class="slice"><path class="surface" d="M126.98343761564846,232.86910599369406a80,80 0 1 0 33.01656238435155,-152.86910599369406l0,-80a160,160 0 1 1 -66.0331247687031,305.7382119873881Z" style="pointer-events: all; stroke-width: 0; fill: rgb(144, 238, 144); fill-opacity: 1; stroke: rgb(68, 68, 68); stroke-opacity: 1;"/><g class="slicetext"><text data-notex="1" class="slicetext" transform="translate(277.29543699322863,172.7318237830758)" text-anchor="middle" x="0" y="0" style="font-family: 'Open Sans', verdana, arial, sans-serif; font-size: 14px; fill: rgb(68, 68, 68); fill-opacity: 1; white-space: pre;"><tspan class="line" dy="0em" x="0" y="0">Neutral</tspan><tspan class="line" dy="1.3em" x="0" y="0">109</tspan><tspan class="line" dy="2.6em" x="0" y="0">56.8%</tspan></text></g></g><g class="slice"><path class="surface" d="M160,80a80,80 0 0 0 -44.4456186415682,146.5175689842036l-44.4456186415682,66.5175689842036a160,160 0 0 1 88.8912372831364,-293.0351379684072Z" style="pointer-events: all; stroke-width: 0; fill: rgb(0, 100, 0); fill-opacity: 1; stroke: rgb(68, 68, 68); stroke-opacity: 1;"/><g class="slicetext"><text data-notex="1" class="slicetext" transform="translate(44.932784712134946,112.5642762294645)" text-anchor="middle" x="0" y="0" style="font-family: 'Open Sans', verdana, arial, sans-serif; font-size: 14px; fill: rgb(255, 255, 255); fill-opacity: 1; white-space: pre;"><tspan class="line" dy="0em" x="0" y="0">Positive</tspan><tspan class="line" dy="1.3em" x="0" y="0">78</tspan><tspan class="line" dy="2.6em" x="0" y="0">40.6%</tspan></text></g></g><g class="slice"><path class="surface" d="M115.5543813584318,226.5175689842036a80,80 0 0 0 11.429056257216601,6.351537009490443l-33.0165623843516,72.86910599369405a160,160 0 0 1 -22.858112514433202,-12.703074018980885Z" style="pointer-events: all; stroke-width: 0; fill: rgb(255, 0, 0); fill-opacity: 1; stroke: rgb(68, 68, 68); stroke-opacity: 1;"/><g class="slicetext"><text data-notex="1" class="slicetext" transform="translate(84.26124092093673,286.1094948266044)scale(0.39226418239647476)rotate(-60.9375)" text-anchor="middle" x="0" y="0" style="font-family: 'Open Sans', verdana, arial, sans-serif; font-size: 14px; fill: rgb(255, 255, 255); fill-opacity: 1; white-space: pre;"><tspan class="line" dy="0em" x="0" y="0">Negative</tspan><tspan class="line" dy="1.3em" x="0" y="0">5</tspan><tspan class="line" dy="2.6em" x="0" y="0">2.6%</tspan></text></g></g></g></g><g class="treemaplayer"/><g class="sunburstlayer"/><g class="glimages"/><defs id="topdefs-598e63"><g class="clips"/></defs><g class="layer-above"><g class="imagelayer"/><g class="shapelayer"/></g><g class="infolayer"><g class="g-gtitle"/></g></svg>