<svg class="main-svg" xmlns="http://www.w3.org/2000/svg" xmlns:xlink="http://www.w3.org/1999/xlink" width="320" height="320" style="" viewBox="0 0 320 320"><rect x="0" y="0" width="320" height="320" style="fill: rgb(0, 0, 0); fill-opacity: 0;"/><defs id="defs-d69b22"><g class="clips"/><g class="gradients"/></defs><g class="bglayer"/><g class="layer-below"><g class="imagelayer"/><g class="shapelayer"/></g><g class="cartesianlayer"/><g class="polarlayer"/><g class="ternarylayer"/><g class="geolayer"/><g class="funnelarealayer"/><g class="pielayer"><g class="trace" stroke-linejoin="round" style="opacity: 1;"><g class="slice"><path class="surface" d="M150.797393085384,239.46893749116734a80,80 0 1 0 9.202606914616023,-159.46893749116734l0,-80a160,160 0 1 1 -18.405213829232046,318.9378749823347Z" style="pointer-events: all; stroke-width: 0; fill: rgb(144, 238, 144); fill-opacity: 1; stroke: rgb(68, 68, 68); stroke-opacity: 1;"/><g class="slicetext"><text data-notex="1" class="slicetext" transform="translate(279.80068603395,154.3118755589501)" text-anchor="middle" x="0" y="0" style="font-family: 'Open Sans', verdana, arial, sans-serif; font-size: 14px; fill: rgb(68, 68, 68); fill-opacity: 1; white-space: pre;"><tspan class="line" dy="0em" x="0" y="0">Neutral</tspan><tspan class="line" dy="1.3em" x="0" y="0">113</tspan><tspan class="line" dy="2.6em" x="0" y="0">51.8%</tspan></text></g></g><g class="slice"><path class="surface" d="M160,80a80,80 0 0 0 -33.51895128679823,152.639382600854l-33.51895128679823,72.63938260085398a160,160 0 0 1 67.03790257359645,-305.278765201708Z" style="pointer-events: all; stroke-width: 0; fill: rgb(0, 100, 0); fill-opacity: 1; stroke: rgb(68, 68, 68); stroke-opacity: 1;"/><g class="slicetext"><text data-notex="1" class="slicetext" transform="translate(42.55835374912215,121.66022532581934)" text-anchor="middle" x="0" y="0" style="font-family: 'Open Sans', verdana, arial, sans-serif; font-size: 14px; fill: rgb(255, 255, 255); fill-opacity: 1; white-space: pre;"><tspan class="line" dy="0em" x="0" y="0">Positive</tspan><tspan class="line" dy="1.3em" x="0" y="0">94</tspan><tspan class="line" dy="2.6em" x="0" y="0">43.1%</tspan></text></g></g><g class="slice"><path class="surface" d="M126.48104871320177,232.639382600854a80,80 0 0 0 24.316344372182186,6.829554890313361l-9.202606914616043,79.46893749116734a160,160 0 0 1 -48.63268874436437,-13.659109780626721Z" style="pointer-events: all; stroke-width: 0; fill: rgb(255, 0, 0); fill-opacity: 1; stroke: rgb(68, 68, 68); stroke-opacity: 1;"/><g class="slicetext"><text data-notex="1" class="slicetext" transform="translate(114.74651761718775,290.29341752958214)scale(0.66153350177204)rotate(-74.3119266055046)" text-anchor="middle" x="0" y="0" style="font-family: 'Open Sans', verdana, arial, sans-serif; font-size: 14px; fill: rgb(255, 255, 255); fill-opacity: 1; white-space: pre;"><tspan class="line" dy="0em" x="0" y="0">Negative</tspan><tspan class="line" dy="1.3em" x="0" y="0">11</tspan><tspan class="line" dy="2.6em" x="0" y="0">5.05%</tspan></text></g></g></g></g><g class="treemaplayer"/><g class="sunburstlayer"/><g class="glimages"/><defs id="topdefs-d69b22"><g class="clips"/></defs><g class="layer-above"><g class="imagelayer"/><g class="shapelayer"/></g><g class="infolayer"><g class="g-gtitle"/></g></svg>