<svg class="main-svg" xmlns="http://www.w3.org/2000/svg" xmlns:xlink="http://www.w3.org/1999/xlink" width="400" height="400" style="" viewBox="0 0 400 400"><rect x="0" y="0" width="400" height="400" style="fill: rgb(0, 0, 0); fill-opacity: 0;"/><defs id="defs-5b93a7"><g class="clips"/><g class="gradients"/></defs><g class="bglayer"/><g class="layer-below"><g class="imagelayer"/><g class="shapelayer"/></g><g class="cartesianlayer"/><g class="polarlayer"/><g class="ternarylayer"/><g class="geolayer"/><g class="funnelarealayer"/><g class="pielayer"><g class="trace" stroke-linejoin="round" style="opacity: 1;"><g class="slice"><path class="surface" d="M177.60494149612967,297.46005004415a100,100 0 1 0 22.395058503870324,-197.46005004415002l0,-100a200,200 0 1 1 -44.79011700774065,394.92010008830005Z" style="pointer-events: all; stroke-width: 0; fill: rgb(144, 238, 144); fill-opacity: 1; stroke: rgb(68, 68, 68); stroke-opacity: 1;"/><g class="slicetext"><text data-notex="1" class="slicetext" transform="translate(349.04447534198266,202.4977249772982)" text-anchor="middle" x="0" y="0" style="font-family: 'Open Sans', verdana, arial, sans-serif; font-size: 16px; fill: rgb(68, 68, 68); fill-opacity: 1; white-space: pre;"><tspan class="line" dy="0em" x="0" y="0">Neutral</tspan><tspan class="line" dy="1.3em" x="0" y="0">410</tspan><tspan class="line" dy="2.6em" x="0" y="0">53.6%</tspan></text></g></g><g class="slice"><path class="surface" d="M200,100a100,100 0 0 0 -52.64321628773557,185.0217135729614l-52.64321628773557,85.02171357296142a200,200 0 0 1 105.28643257547114,-370.0434271459228Z" style="pointer-events: all; stroke-width: 0; fill: rgb(0, 100, 0); fill-opacity: 1; stroke: rgb(68, 68, 68); stroke-opacity: 1;"/><g class="slicetext"><text data-notex="1" class="slicetext" transform="translate(55.68709102407715,144.5443014891876)" text-anchor="middle" x="0" y="0" style="font-family: 'Open Sans', verdana, arial, sans-serif; font-size: 16px; fill: rgb(255, 255, 255); fill-opacity: 1; white-space: pre;"><tspan class="line" dy="0em" x="0" y="0">Positive</tspan><tspan class="line" dy="1.3em" x="0" y="0">315</tspan><tspan class="line" dy="2.6em" x="0" y="0">41.2%</tspan></text></g></g><g class="slice"><path class="surface" d="M147.35678371226442,285.0217135729614a100,100 0 0 0 30.248157783865306,12.438336471188606l-22.395058503870263,97.46005004415002a200,200 0 0 1 -60.49631556773061,-24.876672942377212Z" style="pointer-events: all; stroke-width: 0; fill: rgb(255, 0, 0); fill-opacity: 1; stroke: rgb(68, 68, 68); stroke-opacity: 1;"/><g class="slicetext"><text data-notex="1" class="slicetext" transform="translate(124.87393340883844,353.9847212356297)scale(0.7579301024192349)rotate(-67.64705882352939)" text-anchor="middle" x="0" y="0" style="font-family: 'Open Sans', verdana, arial, sans-serif; font-size: 16px; fill: rgb(255, 255, 255); fill-opacity: 1; white-space: pre;"><tspan class="line" dy="0em" x="0" y="0">Negative</tspan><tspan class="line" dy="1.3em" x="0" y="0">40</tspan><tspan class="line" dy="2.6em" x="0" y="0">5.23%</tspan></text></g></g></g></g><g class="treemaplayer"/><g class="sunburstlayer"/><g class="glimages"/><defs id="topdefs-5b93a7"><g class="clips"/></defs><g class="layer-above"><g class="imagelayer"/><g class="shapelayer"/></g><g class="infolayer"><g class="g-gtitle"/></g></svg>