<svg class="main-svg" xmlns="http://www.w3.org/2000/svg" xmlns:xlink="http://www.w3.org/1999/xlink" width="320" height="320" style="" viewBox="0 0 320 320"><rect x="0" y="0" width="320" height="320" style="fill: rgb(0, 0, 0); fill-opacity: 0;"/><defs id="defs-18b3d4"><g class="clips"/><g class="gradients"/></defs><g class="bglayer"/><g class="layer-below"><g class="imagelayer"/><g class="shapelayer"/></g><g class="cartesianlayer"/><g class="polarlayer"/><g class="ternarylayer"/><g class="geolayer"/><g class="funnelarealayer"/><g class="pielayer"><g class="trace" stroke-linejoin="round" style="opacity: 1;"><g class="slice"><path class="surface" d="M140.63002376401315,237.61961105685407a80,80 0 1 0 19.36997623598686,-157.61961105685407l0,-80a160,160 0 1 1 -38.73995247197372,315.23922211370814Z" style="pointer-events: all; stroke-width: 0; fill: rgb(144, 238, 144); fill-opacity: 1; stroke: rgb(68, 68, 68); stroke-opacity: 1;"/><g class="slicetext"><text data-notex="1" class="slicetext" transform="translate(279.10400914795804,162.035206435907)" text-anchor="middle" x="0" y="0" style="font-family: 'Open Sans', verdana, arial, sans-serif; font-size: 14px; fill: rgb(68, 68, 68); fill-opacity: 1; white-space: pre;"><tspan class="line" dy="0em" x="0" y="0">Neutral</tspan><tspan class="line" dy="1.3em" x="0" y="0">90</tspan><tspan class="line" dy="2.6em" x="0" y="0">53.9%</tspan></text></g></g><g class="slice"><path class="surface" d="M160,80a80,80 0 0 0 -46.53447999031595,145.07335992578595l-46.53447999031595,65.07335992578595a160,160 0 0 1 93.0689599806319,-290.1467198515719Z" style="pointer-events: all; stroke-width: 0; fill: rgb(0, 100, 0); fill-opacity: 1; stroke: rgb(68, 68, 68); stroke-opacity: 1;"/><g class="slicetext"><text data-notex="1" class="slicetext" transform="translate(45.50013417568887,110.746048673632)" text-anchor="middle" x="0" y="0" style="font-family: 'Open Sans', verdana, arial, sans-serif; font-size: 14px; fill: rgb(255, 255, 255); fill-opacity: 1; white-space: pre;"><tspan class="line" dy="0em" x="0" y="0">Positive</tspan><tspan class="line" dy="1.3em" x="0" y="0">67</tspan><tspan class="line" dy="2.6em" x="0" y="0">40.1%</tspan></text></g></g><g class="slice"><path class="surface" d="M113.46552000968404,225.07335992578595a80,80 0 0 0 27.164503754329033,12.546251131068118l-19.36997623598692,77.61961105685407a160,160 0 0 1 -54.329007508658066,-25.092502262136236Z" style="pointer-events: all; stroke-width: 0; fill: rgb(255, 0, 0); fill-opacity: 1; stroke: rgb(68, 68, 68); stroke-opacity: 1;"/><g class="slicetext"><text data-notex="1" class="slicetext" transform="translate(95.00436464916254,278.24935844399937)scale(0.7478550965982448)rotate(-65.20958083832329)" text-anchor="middle" x="0" y="0" style="font-family: 'Open Sans', verdana, arial, sans-serif; font-size: 14px; fill: rgb(255, 255, 255); fill-opacity: 1; white-space: pre;"><tspan class="line" dy="0em" x="0" y="0">Negative</tspan><tspan class="line" dy="1.3em" x="0" y="0">10</tspan><tspan class="line" dy="2.6em" x="0" y="0">5.99%</tspan></text></g></g></g></g><g class="treemaplayer"/><g class="sunburstlayer"/><g class="glimages"/><defs id="topdefs-18b3d4"><g class="clips"/></defs><g class="layer-above"><g class="imagelayer"/><g class="shapelayer"/></g><g class="infolayer"><g class="g-gtitle"/></g></svg>