<svg class="main-svg" xmlns="http://www.w3.org/2000/svg" xmlns:xlink="http://www.w3.org/1999/xlink" width="400" height="400" style="" viewBox="0 0 400 400"><rect x="0" y="0" width="400" height="400" style="fill: rgb(0, 0, 0); fill-opacity: 0;"/><defs id="defs-e14f1e"><g class="clips"/><g class="gradients"/></defs><g class="bglayer"/><g class="layer-below"><g class="imagelayer"/><g class="shapelayer"/></g><g class="cartesianlayer"/><g class="polarlayer"/><g class="ternarylayer"/><g class="geolayer"/><g class="funnelarealayer"/><g class="pielayer"><g class="trace" stroke-linejoin="round" style="opacity: 1;"><g class="slice"><path class="surface" d="M184.83024622702732,298.84269609064387a100,100 0 1 0 15.169753772972678,-198.84269609064387l0,-100a200,200 0 1 1 -30.339507545945356,397.68539218128774Z" style="pointer-events: all; stroke-width: 0; fill: rgb(144, 238, 144); fill-opacity: 1; stroke: rgb(68, 68, 68); stroke-opacity: 1;"/><g class="slicetext"><text data-notex="1" class="slicetext" transform="translate(349.56538138953624,197.0041264093288)" text-anchor="middle" x="0" y="0" style="font-family: 'Open Sans', verdana, arial, sans-serif; font-size: 16px; fill: rgb(68, 68, 68); fill-opacity: 1; white-space: pre;"><tspan class="line" dy="0em" x="0" y="0">Neutral</tspan><tspan class="line" dy="1.3em" x="0" y="0">292</tspan><tspan class="line" dy="2.6em" x="0" y="0">52.4%</tspan></text></g></g><g class="slice"><path class="surface" d="M200,100a100,100 0 0 0 -50.08138720361941,186.55550043620076l-50.08138720361941,86.55550043620075a200,200 0 0 1 100.16277440723881,-373.1110008724015Z" style="pointer-events: all; stroke-width: 0; fill: rgb(0, 100, 0); fill-opacity: 1; stroke: rgb(68, 68, 68); stroke-opacity: 1;"/><g class="slicetext"><text data-notex="1" class="slicetext" transform="translate(55.0903269571001,146.7027973126793)" text-anchor="middle" x="0" y="0" style="font-family: 'Open Sans', verdana, arial, sans-serif; font-size: 16px; fill: rgb(255, 255, 255); fill-opacity: 1; white-space: pre;"><tspan class="line" dy="0em" x="0" y="0">Positive</tspan><tspan class="line" dy="1.3em" x="0" y="0">232</tspan><tspan class="line" dy="2.6em" x="0" y="0">41.7%</tspan></text></g></g><g class="slice"><path class="surface" d="M149.9186127963806,286.55550043620076a100,100 0 0 0 34.911633430646745,12.28719565444311l-15.169753772972658,98.84269609064386a200,200 0 0 1 -69.82326686129349,-24.57439130888622Z" style="pointer-events: all; stroke-width: 0; fill: rgb(255, 0, 0); fill-opacity: 1; stroke: rgb(68, 68, 68); stroke-opacity: 1;"/><g class="slicetext"><text data-notex="1" class="slicetext" transform="translate(132.92036606027517,354.6429381054101)scale(0.8284748302352337)rotate(-70.6104129263914)" text-anchor="middle" x="0" y="0" style="font-family: 'Open Sans', verdana, arial, sans-serif; font-size: 16px; fill: rgb(255, 255, 255); fill-opacity: 1; white-space: pre;"><tspan class="line" dy="0em" x="0" y="0">Negative</tspan><tspan class="line" dy="1.3em" x="0" y="0">33</tspan><tspan class="line" dy="2.6em" x="0" y="0">5.92%</tspan></text></g></g></g></g><g class="treemaplayer"/><g class="sunburstlayer"/><g class="glimages"/><defs id="topdefs-e14f1e"><g class="clips"/></defs><g class="layer-above"><g class="imagelayer"/><g class="shapelayer"/></g><g class="infolayer"><g class="g-gtitle"/></g></svg>