<svg class="main-svg" xmlns="http://www.w3.org/2000/svg" xmlns:xlink="http://www.w3.org/1999/xlink" width="400" height="400" style="" viewBox="0 0 400 400"><rect x="0" y="0" width="400" height="400" style="fill: rgb(0, 0, 0); fill-opacity: 0;"/><defs id="defs-173a44"><g class="clips"/><g class="gradients"/></defs><g class="bglayer"/><g class="layer-below"><g class="imagelayer"/><g class="shapelayer"/></g><g class="cartesianlayer"/><g class="polarlayer"/><g class="ternarylayer"/><g class="geolayer"/><g class="funnelarealayer"/><g class="pielayer"><g class="trace" stroke-linejoin="round" style="opacity: 1;"><g class="slice"><path class="surface" d="M158.95871945472436,291.189984599209a100,100 0 1 0 41.041280545275654,-191.18998459920903l0,-100a200,200 0 1 1 -82.08256109055131,382.37996919841805Z" style="pointer-events: all; stroke-width: 0; fill: rgb(144, 238, 144); fill-opacity: 1; stroke: rgb(68, 68, 68); stroke-opacity: 1;"/><g class="slicetext"><text data-notex="1" class="slicetext" transform="translate(346.6590374556271,217.07591530972712)" text-anchor="middle" x="0" y="0" style="font-family: 'Open Sans', verdana, arial, sans-serif; font-size: 16px; fill: rgb(68, 68, 68); fill-opacity: 1; white-space: pre;"><tspan class="line" dy="0em" x="0" y="0">Neutral</tspan><tspan class="line" dy="1.3em" x="0" y="0">118</tspan><tspan class="line" dy="2.6em" x="0" y="0">56.7%</tspan></text></g></g><g class="slice"><path class="surface" d="M200,100a100,100 0 0 0 -59.26621913640171,180.54511325509458l-59.26621913640171,80.54511325509456a200,200 0 0 1 118.53243827280342,-361.09022651018915Z" style="pointer-events: all; stroke-width: 0; fill: rgb(0, 100, 0); fill-opacity: 1; stroke: rgb(68, 68, 68); stroke-opacity: 1;"/><g class="slicetext"><text data-notex="1" class="slicetext" transform="translate(57.44313074870968,138.8104756511276)" text-anchor="middle" x="0" y="0" style="font-family: 'Open Sans', verdana, arial, sans-serif; font-size: 16px; fill: rgb(255, 255, 255); fill-opacity: 1; white-space: pre;"><tspan class="line" dy="0em" x="0" y="0">Positive</tspan><tspan class="line" dy="1.3em" x="0" y="0">83</tspan><tspan class="line" dy="2.6em" x="0" y="0">39.9%</tspan></text></g></g><g class="slice"><path class="surface" d="M140.7337808635983,280.5451132550946a100,100 0 0 0 18.224938591126033,10.64487134411445l-41.041280545275676,91.18998459920901a200,200 0 0 1 -36.44987718225207,-21.2897426882289Z" style="pointer-events: all; stroke-width: 0; fill: rgb(255, 0, 0); fill-opacity: 1; stroke: rgb(68, 68, 68); stroke-opacity: 1;"/><g class="slicetext"><text data-notex="1" class="slicetext" transform="translate(102.70033698311596,351.12955017508716)scale(0.5411003332671278)rotate(-59.71153846153845)" text-anchor="middle" x="0" y="0" style="font-family: 'Open Sans', verdana, arial, sans-serif; font-size: 16px; fill: rgb(255, 255, 255); fill-opacity: 1; white-space: pre;"><tspan class="line" dy="0em" x="0" y="0">Negative</tspan><tspan class="line" dy="1.3em" x="0" y="0">7</tspan><tspan class="line" dy="2.6em" x="0" y="0">3.37%</tspan></text></g></g></g></g><g class="treemaplayer"/><g class="sunburstlayer"/><g class="glimages"/><defs id="topdefs-173a44"><g class="clips"/></defs><g class="layer-above"><g class="imagelayer"/><g class="shapelayer"/></g><g class="infolayer"><g class="g-gtitle"/></g></svg>