<svg class="main-svg" xmlns="http://www.w3.org/2000/svg" xmlns:xlink="http://www.w3.org/1999/xlink" width="400" height="400" style="" viewBox="0 0 400 400"><rect x="0" y="0" width="400" height="400" style="fill: rgb(0, 0, 0); fill-opacity: 0;"/><defs id="defs-2054fa"><g class="clips"/><g class="gradients"/></defs><g class="bglayer"/><g class="layer-below"><g class="imagelayer"/><g class="shapelayer"/></g><g class="cartesianlayer"/><g class="polarlayer"/><g class="ternarylayer"/><g class="geolayer"/><g class="funnelarealayer"/><g class="pielayer"><g class="trace" stroke-linejoin="round" style="opacity: 1;"><g class="slice"><path class="surface" d="M298.86154122075345,215.04645032747828a100,100 0 0 0 -98.86154122075342,-115.0464503274783l0,-100a200,200 0 0 1 197.72308244150685,230.0929006549566Z" style="pointer-events: all; stroke-width: 0; fill: rgb(99, 110, 250); fill-opacity: 1; stroke: rgb(68, 68, 68); stroke-opacity: 1;"/><g class="slicetext"><text data-notex="1" class="slicetext" transform="translate(318.23057565597594,98.36107807171149)rotate(49.326923076923094)" text-anchor="middle" x="0" y="0" style="font-family: 'Open Sans', verdana, arial, sans-serif; font-size: 15px; fill: rgb(255, 255, 255); fill-opacity: 1; white-space: pre;"><tspan class="line" dy="0em" x="0" y="0">13:00 - 17:59</tspan><tspan class="line" dy="1.3em" x="0" y="0">57</tspan><tspan class="line" dy="2.6em" x="0" y="0">27.4%</tspan></text></g></g><g class="slice"><path class="surface" d="M200,100a100,100 0 0 0 -99.81755542233175,106.03784974222859l-99.81755542233175,6.037849742228594a200,200 0 0 1 199.6351108446635,-212.07569948445718Z" style="pointer-events: all; stroke-width: 0; fill: rgb(239, 85, 59); fill-opacity: 1; stroke: rgb(68, 68, 68); stroke-opacity: 1;"/><g class="slicetext"><text data-notex="1" class="slicetext" transform="translate(86.45176489483647,93.15554401284695)rotate(-46.73076923076928)" text-anchor="middle" x="0" y="0" style="font-family: 'Open Sans', verdana, arial, sans-serif; font-size: 15px; fill: rgb(68, 68, 68); fill-opacity: 1; white-space: pre;"><tspan class="line" dy="0em" x="0" y="0">07:00 - 12:59</tspan><tspan class="line" dy="1.3em" x="0" y="0">54</tspan><tspan class="line" dy="2.6em" x="0" y="0">26%</tspan></text></g></g><g class="slice"><path class="surface" d="M100.18244457766825,206.0378497422286a100,100 0 0 0 99.81755542233174,93.96215025777141l-1.2246467991473532e-14,100a200,200 0 0 1 -199.63511084466347,-187.92430051554282Z" style="pointer-events: all; stroke-width: 0; fill: rgb(0, 204, 150); fill-opacity: 1; stroke: rgb(68, 68, 68); stroke-opacity: 1;"/><g class="slicetext"><text data-notex="1" class="slicetext" transform="translate(111.61657560627577,293.8455901366213)rotate(43.26923076923083)" text-anchor="middle" x="0" y="0" style="font-family: 'Open Sans', verdana, arial, sans-serif; font-size: 15px; fill: rgb(68, 68, 68); fill-opacity: 1; white-space: pre;"><tspan class="line" dy="0em" x="0" y="0">18:00 - 23:59</tspan><tspan class="line" dy="1.3em" x="0" y="0">50</tspan><tspan class="line" dy="2.6em" x="0" y="0">24%</tspan></text></g></g><g class="slice"><path class="surface" d="M200,300a100,100 0 0 0 98.86154122075344,-84.9535496725217l98.86154122075342,15.046450327478295a200,200 0 0 1 -197.72308244150688,169.9070993450434Z" style="pointer-events: all; stroke-width: 0; fill: rgb(171, 99, 250); fill-opacity: 1; stroke: rgb(68, 68, 68); stroke-opacity: 1;"/><g class="slicetext"><text data-notex="1" class="slicetext" transform="translate(283.99448302915016,297.79341141568625)rotate(-40.673076923076906)" text-anchor="middle" x="0" y="0" style="font-family: 'Open Sans', verdana, arial, sans-serif; font-size: 15px; fill: rgb(68, 68, 68); fill-opacity: 1; white-space: pre;"><tspan class="line" dy="0em" x="0" y="0">00:00 - 06:59</tspan><tspan class="line" dy="1.3em" x="0" y="0">47</tspan><tspan class="line" dy="2.6em" x="0" y="0">22.6%</tspan></text></g></g></g></g><g class="treemaplayer"/><g class="sunburstlayer"/><g class="glimages"/><defs id="topdefs-2054fa"><g class="clips"/></defs><g class="layer-above"><g class="imagelayer"/><g class="shapelayer"/></g><g class="infolayer"><g class="g-gtitle"/></g></svg>