<svg class="main-svg" xmlns="http://www.w3.org/2000/svg" xmlns:xlink="http://www.w3.org/1999/xlink" width="400" height="400" style="" viewBox="0 0 400 400"><rect x="0" y="0" width="400" height="400" style="fill: rgb(0, 0, 0); fill-opacity: 0;"/><defs id="defs-6d9d70"><g class="clips"/><g class="gradients"/></defs><g class="bglayer"/><g class="layer-below"><g class="imagelayer"/><g class="shapelayer"/></g><g class="cartesianlayer"/><g class="polarlayer"/><g class="ternarylayer"/><g class="geolayer"/><g class="funnelarealayer"/><g class="pielayer"><g class="trace" stroke-linejoin="round" style="opacity: 1;"><g class="slice"><path class="surface" d="M297.5961533339493,221.7942849026128a100,100 0 0 0 -97.5961533339493,-121.79428490261279l0,-100a200,200 0 0 1 195.1923066678986,243.58856980522557Z" style="pointer-events: all; stroke-width: 0; fill: rgb(99, 110, 250); fill-opacity: 1; stroke: rgb(68, 68, 68); stroke-opacity: 1;"/><g class="slicetext"><text data-notex="1" class="slicetext" transform="translate(321.6498833481734,102.47951316741707)rotate(51.29411764705878)" text-anchor="middle" x="0" y="0" style="font-family: 'Open Sans', verdana, arial, sans-serif; font-size: 15px; fill: rgb(255, 255, 255); fill-opacity: 1; white-space: pre;"><tspan class="line" dy="0em" x="0" y="0">18:00 - 23:59</tspan><tspan class="line" dy="1.3em" x="0" y="0">218</tspan><tspan class="line" dy="2.6em" x="0" y="0">28.5%</tspan></text></g></g><g class="slice"><path class="surface" d="M200,100a100,100 0 0 0 -99.99810273487269,100.61599466381385l-99.99810273487269,0.6159946638138568a200,200 0 0 1 199.99620546974538,-201.2319893276277Z" style="pointer-events: all; stroke-width: 0; fill: rgb(239, 85, 59); fill-opacity: 1; stroke: rgb(68, 68, 68); stroke-opacity: 1;"/><g class="slicetext"><text data-notex="1" class="slicetext" transform="translate(89.39162413889457,90.11493886766681)rotate(-45.17647058823525)" text-anchor="middle" x="0" y="0" style="font-family: 'Open Sans', verdana, arial, sans-serif; font-size: 15px; fill: rgb(68, 68, 68); fill-opacity: 1; white-space: pre;"><tspan class="line" dy="0em" x="0" y="0">00:00 - 06:59</tspan><tspan class="line" dy="1.3em" x="0" y="0">192</tspan><tspan class="line" dy="2.6em" x="0" y="0">25.1%</tspan></text></g></g><g class="slice"><path class="surface" d="M100.00189726512731,200.61599466381386a100,100 0 0 0 97.94491848603361,99.36292528654529l-2.0531842488390755,99.97891995035914a200,200 0 0 1 -195.88983697206723,-198.72585057309058Z" style="pointer-events: all; stroke-width: 0; fill: rgb(0, 204, 150); fill-opacity: 1; stroke: rgb(68, 68, 68); stroke-opacity: 1;"/><g class="slicetext"><text data-notex="1" class="slicetext" transform="translate(108.1698933921696,290.4757205887103)rotate(45.41176470588232)" text-anchor="middle" x="0" y="0" style="font-family: 'Open Sans', verdana, arial, sans-serif; font-size: 15px; fill: rgb(68, 68, 68); fill-opacity: 1; white-space: pre;"><tspan class="line" dy="0em" x="0" y="0">13:00 - 17:59</tspan><tspan class="line" dy="1.3em" x="0" y="0">188</tspan><tspan class="line" dy="2.6em" x="0" y="0">24.6%</tspan></text></g></g><g class="slice"><path class="surface" d="M197.94681575116093,299.9789199503591a100,100 0 0 0 99.64933758278838,-78.18463504774635l97.5961533339493,21.794284902612794a200,200 0 0 1 -199.29867516557675,156.3692700954927Z" style="pointer-events: all; stroke-width: 0; fill: rgb(171, 99, 250); fill-opacity: 1; stroke: rgb(68, 68, 68); stroke-opacity: 1;"/><g class="slicetext"><text data-notex="1" class="slicetext" transform="translate(279.5507498804717,301.44112917897996)rotate(-38.117647058823536)" text-anchor="middle" x="0" y="0" style="font-family: 'Open Sans', verdana, arial, sans-serif; font-size: 15px; fill: rgb(68, 68, 68); fill-opacity: 1; white-space: pre;"><tspan class="line" dy="0em" x="0" y="0">07:00 - 12:59</tspan><tspan class="line" dy="1.3em" x="0" y="0">167</tspan><tspan class="line" dy="2.6em" x="0" y="0">21.8%</tspan></text></g></g></g></g><g class="treemaplayer"/><g class="sunburstlayer"/><g class="glimages"/><defs id="topdefs-6d9d70"><g class="clips"/></defs><g class="layer-above"><g class="imagelayer"/><g class="shapelayer"/></g><g class="infolayer"><g class="g-gtitle"/></g></svg>