<svg class="main-svg" xmlns="http://www.w3.org/2000/svg" xmlns:xlink="http://www.w3.org/1999/xlink" width="400" height="400" style="" viewBox="0 0 400 400"><rect x="0" y="0" width="400" height="400" style="fill: rgb(0, 0, 0); fill-opacity: 0;"/><defs id="defs-4abfaf"><g class="clips"/><g class="gradients"/></defs><g class="bglayer"/><g class="layer-below"><g class="imagelayer"/><g class="shapelayer"/></g><g class="cartesianlayer"/><g class="polarlayer"/><g class="ternarylayer"/><g class="geolayer"/><g class="funnelarealayer"/><g class="pielayer"><g class="trace" stroke-linejoin="round" style="opacity: 1;"><g class="slice"><path class="surface" d="M294.7870304650677,231.8656375366056a100,100 0 0 0 -94.7870304650677,-131.8656375366056l0,-100a200,200 0 0 1 189.5740609301354,263.7312750732112Z" style="pointer-events: all; stroke-width: 0; fill: rgb(99, 110, 250); fill-opacity: 1; stroke: rgb(68, 68, 68); stroke-opacity: 1;"/><g class="slicetext"><text data-notex="1" class="slicetext" transform="translate(326.5817933064915,108.97259163306451)rotate(54.290843806104135)" text-anchor="middle" x="0" y="0" style="font-family: 'Open Sans', verdana, arial, sans-serif; font-size: 15px; fill: rgb(255, 255, 255); fill-opacity: 1; white-space: pre;"><tspan class="line" dy="0em" x="0" y="0">18:00 - 23:59</tspan><tspan class="line" dy="1.3em" x="0" y="0">168</tspan><tspan class="line" dy="2.6em" x="0" y="0">30.2%</tspan></text></g></g><g class="slice"><path class="surface" d="M200,100a100,100 0 0 0 -99.78971767317458,106.48168548358454l-99.78971767317458,6.481685483584545a200,200 0 0 1 199.57943534634916,-212.96337096716908Z" style="pointer-events: all; stroke-width: 0; fill: rgb(239, 85, 59); fill-opacity: 1; stroke: rgb(68, 68, 68); stroke-opacity: 1;"/><g class="slicetext"><text data-notex="1" class="slicetext" transform="translate(86.21447273187428,93.40828711854381)rotate(-46.85816876122078)" text-anchor="middle" x="0" y="0" style="font-family: 'Open Sans', verdana, arial, sans-serif; font-size: 15px; fill: rgb(68, 68, 68); fill-opacity: 1; white-space: pre;"><tspan class="line" dy="0em" x="0" y="0">00:00 - 06:59</tspan><tspan class="line" dy="1.3em" x="0" y="0">145</tspan><tspan class="line" dy="2.6em" x="0" y="0">26%</tspan></text></g></g><g class="slice"><path class="surface" d="M100.21028232682542,206.48168548358456a100,100 0 0 0 96.9699903360165,93.4785522999666l-2.8197273371580853,99.96023778355114a200,200 0 0 1 -193.939980672033,-186.9571045999332Z" style="pointer-events: all; stroke-width: 0; fill: rgb(0, 204, 150); fill-opacity: 1; stroke: rgb(68, 68, 68); stroke-opacity: 1;"/><g class="slicetext"><text data-notex="1" class="slicetext" transform="translate(110.50823479238578,292.7892690761013)rotate(43.94973070017954)" text-anchor="middle" x="0" y="0" style="font-family: 'Open Sans', verdana, arial, sans-serif; font-size: 15px; fill: rgb(68, 68, 68); fill-opacity: 1; white-space: pre;"><tspan class="line" dy="0em" x="0" y="0">13:00 - 17:59</tspan><tspan class="line" dy="1.3em" x="0" y="0">131</tspan><tspan class="line" dy="2.6em" x="0" y="0">23.5%</tspan></text></g></g><g class="slice"><path class="surface" d="M197.1802726628419,299.9602377835511a100,100 0 0 0 97.60675780222577,-68.09460024694549l94.78703046506769,31.865637536605647a200,200 0 0 1 -195.21351560445154,136.18920049389098Z" style="pointer-events: all; stroke-width: 0; fill: rgb(171, 99, 250); fill-opacity: 1; stroke: rgb(68, 68, 68); stroke-opacity: 1;"/><g class="slicetext"><text data-notex="1" class="slicetext" transform="translate(274.9632632224228,307.5069122761858)rotate(-34.90125673249554)" text-anchor="middle" x="0" y="0" style="font-family: 'Open Sans', verdana, arial, sans-serif; font-size: 15px; fill: rgb(68, 68, 68); fill-opacity: 1; white-space: pre;"><tspan class="line" dy="0em" x="0" y="0">07:00 - 12:59</tspan><tspan class="line" dy="1.3em" x="0" y="0">113</tspan><tspan class="line" dy="2.6em" x="0" y="0">20.3%</tspan></text></g></g></g></g><g class="treemaplayer"/><g class="sunburstlayer"/><g class="glimages"/><defs id="topdefs-4abfaf"><g class="clips"/></defs><g class="layer-above"><g class="imagelayer"/><g class="shapelayer"/></g><g class="infolayer"><g class="g-gtitle"/></g></svg>